<svg width="191" height="209" viewBox="0 0 191 209" fill="none" xmlns="http://www.w3.org/2000/svg">
<path d="M148.358 106.313L148.597 106.334L148.619 103.917L148.358 103.896L146.146 103.769L146.189 106.207L148.358 106.313Z" fill="#F5F5F5"/>
<path d="M53.7685 89.9902H55.6772L54.7228 75.7665L53.7685 89.9902Z" fill="#F5F5F5"/>
<path d="M57.6076 89.9902H59.4946L58.5619 75.7665L57.6076 89.9902Z" fill="#F5F5F5"/>
<path d="M49.9302 89.9902H51.8389L50.8846 75.7665L49.9302 89.9902Z" fill="#F5F5F5"/>
<path d="M145.538 106.185L145.582 103.726L143.109 103.578L143.131 106.058L145.538 106.185Z" fill="#F5F5F5"/>
<path d="M106.388 131.877C105.694 131.877 105.152 132.11 104.718 132.555C104.285 133.021 104.089 133.636 104.089 134.42C104.089 135.205 104.306 135.798 104.718 136.265C105.152 136.731 105.694 136.964 106.388 136.964C107.082 136.964 107.625 136.731 108.059 136.286C108.492 135.819 108.688 135.205 108.688 134.42C108.688 133.636 108.471 133.021 108.059 132.555C107.625 132.089 107.082 131.877 106.388 131.877Z" fill="#F5F5F5"/>
<path d="M151.612 106.482L151.655 104.087L149.182 103.938L149.226 106.355L151.612 106.482Z" fill="#F5F5F5"/>
<path d="M127.493 131.877C126.842 131.877 126.321 132.089 125.909 132.513C125.519 132.937 125.302 133.509 125.302 134.251V141.522C125.302 142.264 125.497 142.836 125.909 143.239C126.321 143.663 126.842 143.875 127.493 143.875C128.143 143.875 128.664 143.663 129.054 143.239C129.445 142.815 129.64 142.242 129.64 141.522V134.251C129.64 133.509 129.445 132.937 129.054 132.513C128.664 132.089 128.143 131.877 127.493 131.877Z" fill="#F5F5F5"/>
<path d="M154.648 106.63L154.691 104.277L152.218 104.129L152.262 106.524L154.648 106.63Z" fill="#F5F5F5"/>
<path d="M157.706 106.779L157.728 104.447L155.255 104.299L155.299 106.673L157.706 106.779Z" fill="#F5F5F5"/>
<path d="M46.0907 89.9902H47.9994L47.045 75.7665L46.0907 89.9902Z" fill="#F5F5F5"/>
<path d="M76.7816 89.9902H78.6903L77.736 75.7665L76.7816 89.9902Z" fill="#F5F5F5"/>
<path d="M80.6208 89.9902H82.5295L81.5752 75.7665L80.6208 89.9902Z" fill="#F5F5F5"/>
<path d="M84.4599 89.9902H86.3469L85.4143 75.7665L84.4599 89.9902Z" fill="#F5F5F5"/>
<path d="M88.733 83.3128L88.2775 89.9901H90.1862L90.0127 87.4252C89.5789 86.0685 89.1451 84.6906 88.733 83.3128Z" fill="#F5F5F5"/>
<path d="M72.9421 89.9902H74.8508L73.8964 75.7665L72.9421 89.9902Z" fill="#F5F5F5"/>
<path d="M65.2863 89.9902H67.1733L66.219 75.7665L65.2863 89.9902Z" fill="#F5F5F5"/>
<path d="M61.4471 89.9902H63.3341L62.3798 75.7665L61.4471 89.9902Z" fill="#F5F5F5"/>
<path d="M69.1038 89.9902H71.0125L70.0582 75.7665L69.1038 89.9902Z" fill="#F5F5F5"/>
<path d="M84.6551 2.84581L10.8449 44.4995C4.14274 48.2728 0 55.268 0 62.8569V146.143C0 153.711 4.14274 160.706 10.8449 164.5L84.6551 206.154C91.3573 209.949 99.6427 209.949 106.345 206.154L180.155 164.5C186.857 160.706 191 153.711 191 146.143V62.8569C191 55.2892 186.857 48.294 180.155 44.4995L106.345 2.84581C99.6427 -0.948603 91.3573 -0.948603 84.6551 2.84581ZM47.4138 136.753H24.5094V135.226H47.3921V136.753H47.4138ZM66.7394 146.631H63.4859V132.619L59.842 135.714V132.28L63.4859 129.185H66.7394V146.631ZM79.4496 141.628H82.7031C82.7031 142.37 82.9633 142.942 83.4188 143.324C83.8743 143.705 84.4599 143.896 85.1323 143.896C85.8047 143.896 86.4337 143.684 86.8675 143.26C87.3013 142.836 87.5399 142.243 87.5399 141.48C87.5399 140.716 87.323 140.165 86.8675 139.72C86.4337 139.296 85.8047 139.063 85.0239 139.063H84.5467V136.286H85.0239C85.783 136.286 86.3469 136.095 86.7157 135.693C87.0844 135.29 87.2796 134.76 87.2796 134.103C87.2796 133.403 87.0627 132.852 86.6506 132.471C86.2385 132.068 85.7179 131.877 85.0889 131.877C84.4599 131.877 83.9611 132.068 83.5489 132.449C83.1368 132.831 82.9199 133.34 82.8766 133.997H79.6231C79.6665 132.471 80.187 131.262 81.2281 130.372C82.2693 129.482 83.5489 129.015 85.0889 129.015C86.6289 129.015 87.9737 129.482 88.9931 130.414C90.0125 131.347 90.5331 132.555 90.5331 134.018C90.5331 135.693 89.839 136.88 88.4725 137.6C90.0125 138.406 90.7716 139.72 90.7716 141.564C90.7716 143.239 90.2294 144.511 89.1449 145.401C88.0604 146.292 86.7157 146.758 85.0889 146.758C83.4622 146.758 82.1608 146.334 81.0546 145.465C79.9701 144.617 79.4062 143.324 79.3845 141.607L79.4496 141.628ZM107.234 169.779L103.395 166.027L99.0354 170.287L106.128 177.219L103.547 179.742L96.4544 172.81L89.4052 179.699L86.8241 177.177L93.8733 170.287L89.6221 166.133L86.6723 169.016L82.7681 165.2L91.2488 156.912L95.153 160.727L92.2032 163.61L96.4544 167.765L100.814 163.504L97.8425 160.6L101.595 156.933L108.774 163.949L107.256 169.779H107.234ZM110.466 139.084L106.67 146.631H103.135L106.844 139.423C106.475 139.572 106.041 139.635 105.521 139.635C104.241 139.635 103.135 139.169 102.202 138.215C101.269 137.261 100.792 136.011 100.792 134.463C100.792 132.788 101.313 131.453 102.354 130.478C103.395 129.503 104.74 129.015 106.345 129.015C107.95 129.015 109.295 129.503 110.336 130.457C111.377 131.411 111.897 132.725 111.897 134.421C111.897 135.565 111.399 137.113 110.423 139.084H110.466ZM132.915 141.586C132.915 143.175 132.394 144.447 131.353 145.38C130.312 146.313 129.032 146.779 127.514 146.779C125.996 146.779 124.694 146.313 123.653 145.38C122.591 144.447 122.07 143.175 122.07 141.586V134.23C122.07 132.64 122.591 131.368 123.653 130.436C124.716 129.503 125.996 129.036 127.514 129.036C129.032 129.036 130.312 129.503 131.353 130.436C132.394 131.368 132.915 132.64 132.915 134.23V141.586ZM136.277 117.272L136.754 84.1183L137.231 117.272H136.277ZM139.313 117.272L139.79 84.1183L140.268 117.272H139.313ZM141.309 103.493V89.9477L142.74 90.1173L142.827 84.1183L142.914 90.1385L145.777 90.4776L145.864 84.4574L145.95 90.4988L148.358 90.7744L148.813 90.8168L148.9 84.839L148.987 90.838L151.828 91.156L151.915 84.839L152.002 91.1772L154.843 91.4951L154.952 84.8178L155.06 91.5163L157.901 91.8343L157.988 85.4537L158.075 91.8555V92.0039L158.444 117.272H141.265V105.973L142.458 106.037L142.502 103.557L141.265 103.493H141.309ZM148.9 83.6731V76.6355L153.303 77.4622V84.1183L148.9 83.6731ZM166.469 136.753H143.586V135.226H166.469V136.753ZM160.569 117.272L161.046 86.3229L161.524 117.272H160.569ZM163.606 117.272L164.083 86.3229L164.56 117.272H163.606ZM165.883 91.8767V86.1533L151.178 69.1526L133.717 86.8316L134.195 117.293H133.24L133.717 86.8528L130.833 89.7781L131.939 117.293H129.466L130.551 90.0749L129.792 90.838H129.705H129.77L127.839 91.8343L128.859 117.293H126.386L127.384 92.0675L124.803 93.3817L125.757 117.293H123.285L124.217 93.6785L121.766 94.9292L122.656 117.293H120.183L121.072 95.2895L118.751 96.4766L119.576 117.293H117.103L117.927 96.9006L115.737 98.0241L116.496 117.293H114.023L114.782 98.5116L112.722 99.5715L113.437 117.293H110.965L111.659 100.123L109.707 101.119L110.357 117.314H107.885L108.514 101.734L106.692 102.666L107.278 117.314H104.805L105.369 103.345L103.677 104.214L104.198 117.314H101.725L102.224 104.956L100.662 105.761L101.118 117.314H98.645L99.0788 106.567L97.6473 107.309L98.0377 117.314H95.5651L95.9338 108.178L94.6107 108.856L94.9578 117.314H92.4851L92.7888 109.789L92.1164 110.128L89.8173 106.652L89.9908 117.314H89.0365L89.21 105.74L86.7157 101.967L86.9542 117.314H85.9999L86.2385 101.246L83.614 97.2821L83.9177 117.314H82.9633L83.267 96.7522L80.5124 92.5974L80.8811 117.314H79.9268L80.2955 92.2583L80.0569 91.8979H77.4758L77.8445 117.314H76.8902L77.2589 91.8979H74.4176L74.7863 117.314H73.8319L74.2007 91.8979H71.381L71.7497 117.314H70.7954L71.1641 91.8979H68.3444L68.7132 117.314H67.7588L68.1275 91.8979H65.3079L65.6766 117.314H64.7222L65.091 91.8979H62.2713L62.64 117.314H61.6857L62.0544 91.8979H59.2347L59.6035 117.314H58.6491L59.0178 91.8979H56.1982L56.5669 117.314H55.6125L55.9813 91.8979H53.1616L53.5303 117.314H52.576L52.9447 91.8979H50.1033L50.4938 117.314H49.5394L49.9298 91.8979H46.7631V101.797V102.327H46.7848V117.314H42.3384L41.0804 116.191L41.1238 117.314H38.6511L38.7813 114.134L37.892 113.329L38.0438 117.314H35.5712L35.8098 111.485L34.6819 110.488L34.9639 117.314H32.4913L32.8383 108.814L31.4935 107.627L31.8839 117.314H29.4113L29.8668 106.164L28.3051 104.765L28.804 117.314H26.3314L26.8736 103.493L25.7891 102.518H25.1167L25.7024 117.314H23.2297L23.8154 102.518H22.0151L22.6007 117.314H20.1281L20.7137 102.518H18.9135L19.4991 117.314H17.0265L17.6121 102.518H15.313L22.6007 87.8703H43.5097L43.6615 72.8198L83.5923 73.6042L87.67 42.3374C87.6917 42.083 87.8652 41.871 88.1038 41.765L95.1747 38.543C95.4132 38.437 95.6735 38.4582 95.8904 38.5854C96.1073 38.7125 96.2375 38.9457 96.2375 39.2001V80.4935C96.2375 80.4935 96.2375 80.5358 96.2375 80.557L107.299 72.9894L109.815 72.4595L155.277 62.7721L155.32 62.9629L155.407 62.8781L178.507 92.0251L165.905 91.9403L165.883 91.8767Z" fill="#F5F5F5"/>
</svg>
