<svg width="318" height="44" viewBox="0 0 318 44" fill="none" xmlns="http://www.w3.org/2000/svg">
<path d="M21.3207 23.207C22.2264 22.6603 22.2264 21.3397 21.3207 20.793L2.11912 9.20277C1.1865 8.63984 0 9.31566 0 10.4098V33.5902C0 34.6843 1.1865 35.3602 2.11912 34.7972L21.3207 23.207Z" fill="#E6C081"/>
<line x1="43.5" y1="17.5" x2="43.5" y2="26.6015" stroke="#E6C081" stroke-width="3" stroke-linecap="round"/>
<line x1="50.5" y1="7.5" x2="50.5" y2="35.9639" stroke="#E6C081" stroke-width="3" stroke-linecap="round"/>
<line x1="57.5" y1="19.5" x2="57.5" y2="23.7609" stroke="#E6C081" stroke-width="3" stroke-linecap="round"/>
<line x1="64.5" y1="10.5" x2="64.5" y2="34.1233" stroke="#E6C081" stroke-width="3" stroke-linecap="round"/>
<line x1="71.5" y1="1.5" x2="71.5" y2="42.0654" stroke="#E6C081" stroke-width="3" stroke-linecap="round"/>
<line x1="78.5" y1="5.5" x2="78.5" y2="38.8045" stroke="#E6C081" stroke-width="3" stroke-linecap="round"/>
<line x1="85.5" y1="13.5" x2="85.5" y2="29.8624" stroke="#E6C081" stroke-width="3" stroke-linecap="round"/>
<line x1="92.5" y1="17.5" x2="92.5" y2="26.6015" stroke="#E6C081" stroke-width="3" stroke-linecap="round"/>
<line x1="99.5" y1="10.5" x2="99.5" y2="34.1233" stroke="#E6C081" stroke-width="3" stroke-linecap="round"/>
<line x1="106.5" y1="17.5" x2="106.5" y2="26.6015" stroke="#DED9D1" stroke-width="3" stroke-linecap="round"/>
<line x1="113.5" y1="13.5" x2="113.5" y2="29.8624" stroke="#DED9D1" stroke-width="3" stroke-linecap="round"/>
<line x1="120.5" y1="19.5" x2="120.5" y2="23.7609" stroke="#DED9D1" stroke-width="3" stroke-linecap="round"/>
<line x1="127.5" y1="17.5" x2="127.5" y2="26.6015" stroke="#DED9D1" stroke-width="3" stroke-linecap="round"/>
<line x1="134.5" y1="13.5" x2="134.5" y2="29.8624" stroke="#DED9D1" stroke-width="3" stroke-linecap="round"/>
<line x1="141.5" y1="10.5" x2="141.5" y2="34.1233" stroke="#DED9D1" stroke-width="3" stroke-linecap="round"/>
<line x1="148.5" y1="13.5" x2="148.5" y2="29.8624" stroke="#DED9D1" stroke-width="3" stroke-linecap="round"/>
<line x1="155.5" y1="7.5" x2="155.5" y2="35.9639" stroke="#DED9D1" stroke-width="3" stroke-linecap="round"/>
<line x1="162.5" y1="13.5" x2="162.5" y2="29.8624" stroke="#DED9D1" stroke-width="3" stroke-linecap="round"/>
<line x1="169.5" y1="7.5" x2="169.5" y2="35.9639" stroke="#DED9D1" stroke-width="3" stroke-linecap="round"/>
<line x1="176.5" y1="13.5" x2="176.5" y2="29.8624" stroke="#DED9D1" stroke-width="3" stroke-linecap="round"/>
<line x1="183.5" y1="10.5" x2="183.5" y2="34.1233" stroke="#DED9D1" stroke-width="3" stroke-linecap="round"/>
<line x1="190.5" y1="13.5" x2="190.5" y2="29.8624" stroke="#DED9D1" stroke-width="3" stroke-linecap="round"/>
<line x1="197.5" y1="17.5" x2="197.5" y2="26.6015" stroke="#DED9D1" stroke-width="3" stroke-linecap="round"/>
<line x1="204.5" y1="19.5" x2="204.5" y2="23.7609" stroke="#DED9D1" stroke-width="3" stroke-linecap="round"/>
<line x1="211.5" y1="17.5" x2="211.5" y2="26.6015" stroke="#DED9D1" stroke-width="3" stroke-linecap="round"/>
<line x1="218.5" y1="5.5" x2="218.5" y2="38.8045" stroke="#DED9D1" stroke-width="3" stroke-linecap="round"/>
<line x1="225.5" y1="13.5" x2="225.5" y2="29.8624" stroke="#DED9D1" stroke-width="3" stroke-linecap="round"/>
<line x1="232.5" y1="7.5" x2="232.5" y2="35.9639" stroke="#DED9D1" stroke-width="3" stroke-linecap="round"/>
<line x1="239.5" y1="1.5" x2="239.5" y2="42.0654" stroke="#DED9D1" stroke-width="3" stroke-linecap="round"/>
<line x1="246.5" y1="7.5" x2="246.5" y2="35.9639" stroke="#DED9D1" stroke-width="3" stroke-linecap="round"/>
<line x1="253.5" y1="19.5" x2="253.5" y2="23.7609" stroke="#DED9D1" stroke-width="3" stroke-linecap="round"/>
<line x1="295.5" y1="19.5" x2="295.5" y2="23.7609" stroke="#DED9D1" stroke-width="3" stroke-linecap="round"/>
<line x1="309.5" y1="20.5" x2="309.5" y2="24.7609" stroke="#DED9D1" stroke-width="3" stroke-linecap="round"/>
<line x1="316.5" y1="21.5" x2="316.5" y2="22.9781" stroke="#DED9D1" stroke-width="3" stroke-linecap="round"/>
<line x1="260.5" y1="13.5" x2="260.5" y2="29.8624" stroke="#DED9D1" stroke-width="3" stroke-linecap="round"/>
<line x1="302.5" y1="13.5" x2="302.5" y2="29.8624" stroke="#DED9D1" stroke-width="3" stroke-linecap="round"/>
<line x1="267.5" y1="7.5" x2="267.5" y2="35.9639" stroke="#DED9D1" stroke-width="3" stroke-linecap="round"/>
<line x1="274.5" y1="1.5" x2="274.5" y2="42.0654" stroke="#DED9D1" stroke-width="3" stroke-linecap="round"/>
<line x1="281.5" y1="7.5" x2="281.5" y2="35.9639" stroke="#DED9D1" stroke-width="3" stroke-linecap="round"/>
<line x1="288.5" y1="13.5" x2="288.5" y2="29.8624" stroke="#DED9D1" stroke-width="3" stroke-linecap="round"/>
</svg>
