<svg width="30" height="34" viewBox="0 0 30 34" fill="none" xmlns="http://www.w3.org/2000/svg">
<path d="M23.3023 17.223L23.3398 17.2264L23.3432 16.835L23.3023 16.8315L22.9548 16.8109L22.9616 17.2058L23.3023 17.223Z" fill="#F9F8F8"/>
<path d="M8.44531 14.5787H8.74511L8.59521 12.2744L8.44531 14.5787Z" fill="#F9F8F8"/>
<path d="M9.04834 14.5787H9.34473L9.19824 12.2744L9.04834 14.5787Z" fill="#F9F8F8"/>
<path d="M7.84241 14.5787H8.1422L7.9923 12.2744L7.84241 14.5787Z" fill="#F9F8F8"/>
<path d="M22.8595 17.2024L22.8663 16.8041L22.4779 16.78L22.4813 17.1818L22.8595 17.2024Z" fill="#F9F8F8"/>
<path d="M16.7102 21.3646C16.6012 21.3646 16.5161 21.4024 16.4479 21.4745C16.3798 21.5501 16.3491 21.6497 16.3491 21.7767C16.3491 21.9038 16.3832 21.9999 16.4479 22.0755C16.5161 22.151 16.6012 22.1888 16.7102 22.1888C16.8193 22.1888 16.9044 22.151 16.9726 22.0789C17.0407 22.0034 17.0714 21.9038 17.0714 21.7767C17.0714 21.6497 17.0373 21.5501 16.9726 21.4745C16.9044 21.399 16.8193 21.3646 16.7102 21.3646Z" fill="#F9F8F8"/>
<path d="M23.8133 17.2505L23.8201 16.8624L23.4318 16.8384L23.4386 17.2299L23.8133 17.2505Z" fill="#F9F8F8"/>
<path d="M20.025 21.3646C19.9228 21.3646 19.841 21.399 19.7763 21.4676C19.715 21.5363 19.6809 21.6291 19.6809 21.7492V22.9272C19.6809 23.0474 19.7116 23.1401 19.7763 23.2053C19.841 23.274 19.9228 23.3083 20.025 23.3083C20.1272 23.3083 20.209 23.274 20.2703 23.2053C20.3316 23.1366 20.3623 23.0439 20.3623 22.9272V21.7492C20.3623 21.6291 20.3316 21.5363 20.2703 21.4676C20.209 21.399 20.1272 21.3646 20.025 21.3646Z" fill="#F9F8F8"/>
<path d="M24.2903 17.2746L24.2971 16.8934L23.9087 16.8694L23.9155 17.2574L24.2903 17.2746Z" fill="#F9F8F8"/>
<path d="M24.7706 17.2986L24.774 16.9209L24.3856 16.8969L24.3924 17.2815L24.7706 17.2986Z" fill="#F9F8F8"/>
<path d="M7.23938 14.5787H7.53918L7.38928 12.2744L7.23938 14.5787Z" fill="#F9F8F8"/>
<path d="M12.0599 14.5787H12.3597L12.2098 12.2744L12.0599 14.5787Z" fill="#F9F8F8"/>
<path d="M12.663 14.5787H12.9628L12.8129 12.2744L12.663 14.5787Z" fill="#F9F8F8"/>
<path d="M13.266 14.5787H13.5624L13.4159 12.2744L13.266 14.5787Z" fill="#F9F8F8"/>
<path d="M13.9371 13.4971L13.8656 14.5788H14.1654L14.1381 14.1633C14.07 13.9435 14.0019 13.7203 13.9371 13.4971Z" fill="#F9F8F8"/>
<path d="M11.4569 14.5787H11.7567L11.6068 12.2744L11.4569 14.5787Z" fill="#F9F8F8"/>
<path d="M10.2544 14.5787H10.5508L10.4009 12.2744L10.2544 14.5787Z" fill="#F9F8F8"/>
<path d="M9.65137 14.5787H9.94776L9.79786 12.2744L9.65137 14.5787Z" fill="#F9F8F8"/>
<path d="M10.854 14.5787H11.1538L11.0039 12.2744L10.854 14.5787Z" fill="#F9F8F8"/>
<path d="M13.2966 0.461033L1.70338 7.20911C0.650693 7.82039 0 8.95365 0 10.1831V23.6758C0 24.9018 0.650693 26.035 1.70338 26.6498L13.2966 33.3978C14.3493 34.0125 15.6507 34.0125 16.7034 33.3978L28.2966 26.6498C29.3493 26.035 30 24.9018 30 23.6758V10.1831C30 8.95708 29.3493 7.82382 28.2966 7.20911L16.7034 0.461033C15.6507 -0.153678 14.3493 -0.153678 13.2966 0.461033ZM7.4472 22.1545H3.84965V21.9072H7.44379V22.1545H7.4472ZM10.4826 23.7548H9.97161V21.4848L9.39927 21.9862V21.4299L9.97161 20.9285H10.4826V23.7548ZM12.479 22.9443H12.99C12.99 23.0645 13.0309 23.1572 13.1024 23.2191C13.174 23.2809 13.266 23.3118 13.3716 23.3118C13.4772 23.3118 13.576 23.2774 13.6441 23.2087C13.7122 23.1401 13.7497 23.0439 13.7497 22.9203C13.7497 22.7966 13.7156 22.7074 13.6441 22.6352C13.576 22.5666 13.4772 22.5288 13.3545 22.5288H13.2796V22.0789H13.3545C13.4738 22.0789 13.5623 22.048 13.6203 21.9828C13.6782 21.9175 13.7088 21.8317 13.7088 21.7252C13.7088 21.6119 13.6748 21.5226 13.61 21.4608C13.5453 21.3955 13.4635 21.3646 13.3648 21.3646C13.266 21.3646 13.1876 21.3955 13.1229 21.4573C13.0581 21.5192 13.0241 21.6016 13.0173 21.708H12.5062C12.5131 21.4608 12.5948 21.265 12.7583 21.1208C12.9219 20.9766 13.1229 20.901 13.3648 20.901C13.6066 20.901 13.8179 20.9766 13.978 21.1277C14.1381 21.2788 14.2199 21.4745 14.2199 21.7115C14.2199 21.9828 14.1108 22.1751 13.8962 22.2918C14.1381 22.4223 14.2573 22.6352 14.2573 22.934C14.2573 23.2053 14.1722 23.4114 14.0018 23.5556C13.8315 23.6998 13.6203 23.7754 13.3648 23.7754C13.1092 23.7754 12.9048 23.7067 12.7311 23.5659C12.5608 23.4285 12.4722 23.2191 12.4688 22.9409L12.479 22.9443ZM16.8431 27.5049L16.2401 26.897L15.5553 27.5873L16.6693 28.7102L16.2639 29.1189L15.1499 27.9959L14.0427 29.112L13.6373 28.7034L14.7445 27.5873L14.0768 26.9142L13.6134 27.3812L13.0002 26.7631L14.3323 25.4203L14.9455 26.0385L14.4822 26.5055L15.1499 27.1786L15.8347 26.4883L15.3679 26.0179L15.9573 25.4238L17.0849 26.5605L16.8465 27.5049H16.8431ZM17.3507 22.5322L16.7545 23.7548H16.1992L16.7817 22.5872C16.7238 22.6112 16.6557 22.6215 16.5739 22.6215C16.3729 22.6215 16.1992 22.546 16.0527 22.3914C15.9062 22.2369 15.8313 22.0343 15.8313 21.7836C15.8313 21.5123 15.913 21.2959 16.0765 21.138C16.2401 20.98 16.4513 20.901 16.7034 20.901C16.9555 20.901 17.1667 20.98 17.3302 21.1345C17.4938 21.2891 17.5755 21.502 17.5755 21.7767C17.5755 21.9622 17.4972 22.2128 17.3439 22.5322H17.3507ZM20.8767 22.9375C20.8767 23.195 20.7949 23.4011 20.6314 23.5522C20.4679 23.7033 20.2669 23.7788 20.0284 23.7788C19.7899 23.7788 19.5855 23.7033 19.422 23.5522C19.2551 23.4011 19.1733 23.195 19.1733 22.9375V21.7458C19.1733 21.4882 19.2551 21.2822 19.422 21.1311C19.5889 20.98 19.7899 20.9044 20.0284 20.9044C20.2669 20.9044 20.4679 20.98 20.6314 21.1311C20.7949 21.2822 20.8767 21.4882 20.8767 21.7458V22.9375ZM21.4047 18.9985L21.4797 13.6275L21.5546 18.9985H21.4047ZM21.8817 18.9985L21.9566 13.6275L22.0316 18.9985H21.8817ZM22.1951 16.7663V14.5719L22.4199 14.5994L22.4336 13.6275L22.4472 14.6028L22.8969 14.6577L22.9105 13.6825L22.9241 14.6612L23.3023 14.7058L23.3738 14.7127L23.3875 13.7443L23.4011 14.7161L23.8474 14.7676L23.861 13.7443L23.8746 14.7711L24.3209 14.8226L24.338 13.7408L24.355 14.826L24.8013 14.8775L24.8149 13.8439L24.8285 14.881V14.905L24.8864 18.9985H22.1883V17.1681L22.3757 17.1784L22.3825 16.7766L22.1883 16.7663H22.1951ZM23.3875 13.5554V12.4153L24.079 12.5492V13.6275L23.3875 13.5554ZM26.1469 22.1545H22.5528V21.9072H26.1469V22.1545ZM25.2203 18.9985L25.2953 13.9847L25.3702 18.9985H25.2203ZM25.6973 18.9985L25.7722 13.9847L25.8472 18.9985H25.6973ZM26.055 14.8844V13.9572L23.7452 11.203L21.0027 14.0671L21.0777 19.0019H20.9278L21.0027 14.0705L20.5496 14.5444L20.7234 19.0019H20.335L20.5053 14.5925L20.3861 14.7161H20.3725H20.3827L20.0795 14.8775L20.2396 19.0019H19.8512L20.0079 14.9153L19.6025 15.1282L19.7524 19.0019H19.3641L19.5106 15.1763L19.1256 15.3789L19.2653 19.0019H18.8769L19.0166 15.4373L18.6521 15.6296L18.7815 19.0019H18.3931L18.5226 15.6983L18.1785 15.8803L18.2978 19.0019H17.9094L18.0286 15.9593L17.705 16.131L17.8174 19.0019H17.429L17.538 16.2203L17.2314 16.3817L17.3336 19.0054H16.9453L17.0441 16.4813L16.7579 16.6324L16.8499 19.0054H16.4615L16.5501 16.7423L16.2844 16.8831L16.3661 19.0054H15.9777L16.0561 17.0033L15.8108 17.1338L15.8824 19.0054H15.494L15.5621 17.2643L15.3373 17.3845L15.3986 19.0054H15.0102L15.0681 17.5253L14.8603 17.6351L14.9148 19.0054H14.5265L14.5742 17.7862L14.4685 17.8412L14.1074 17.278L14.1347 19.0054H13.9848L14.012 17.1303L13.6203 16.5191L13.6577 19.0054H13.5078L13.5453 16.4023L13.1331 15.7601L13.1808 19.0054H13.0309L13.0786 15.6743L12.6459 15.0012L12.7038 19.0054H12.5539L12.6119 14.9462L12.5744 14.8878H12.169L12.2269 19.0054H12.077L12.1349 14.8878H11.6886L11.7465 19.0054H11.5966L11.6546 14.8878H11.2117L11.2696 19.0054H11.1197L11.1776 14.8878H10.7347L10.7926 19.0054H10.6427L10.7007 14.8878H10.2578L10.3157 19.0054H10.1658L10.2237 14.8878H9.78083L9.83875 19.0054H9.68885L9.74676 14.8878H9.30388L9.3618 19.0054H9.2119L9.26982 14.8878H8.82694L8.88485 19.0054H8.73495L8.79287 14.8878H8.34999L8.4079 19.0054H8.25801L8.31592 14.8878H7.86963L7.93096 19.0054H7.78106L7.84238 14.8878H7.34499V16.4916V16.5774H7.3484V19.0054H6.65001L6.45242 18.8234L6.45923 19.0054H6.07086L6.0913 18.4902L5.95162 18.3597L5.97547 19.0054H5.5871L5.62457 18.061L5.44742 17.8996L5.49171 19.0054H5.10334L5.15785 17.6283L4.94663 17.436L5.00795 19.0054H4.61958L4.69112 17.199L4.44583 16.9724L4.52419 19.0054H4.13582L4.22099 16.7663L4.05065 16.6083H3.94504L4.03702 19.0054H3.64865L3.74063 16.6083H3.45787L3.54985 19.0054H3.16148L3.25346 16.6083H2.9707L3.06268 19.0054H2.67431L2.7663 16.6083H2.40518L3.54985 14.2354H6.83398L6.85782 11.7971L13.1297 11.9242L13.7702 6.85883C13.7736 6.81762 13.8008 6.78328 13.8383 6.76611L14.9489 6.24412C14.9864 6.22695 15.0273 6.23038 15.0613 6.25099C15.0954 6.27159 15.1158 6.30937 15.1158 6.35058V13.0403C15.1158 13.0403 15.1158 13.0471 15.1158 13.0506L16.8533 11.8246L17.2485 11.7387L24.3891 10.1693L24.3959 10.2002L24.4095 10.1865L28.0377 14.9084L26.0584 14.8947L26.055 14.8844Z" fill="#F9F8F8"/>
</svg>
