<svg width="51" height="57" viewBox="0 0 51 57" fill="none" xmlns="http://www.w3.org/2000/svg">
<path d="M39.2256 28.9923L39.2887 28.9981L39.2944 28.339L39.2256 28.3333L38.6407 28.2986L38.6522 28.9634L39.2256 28.9923Z" fill="#F5F5F5"/>
<path d="M14.2163 24.541H14.721L14.4686 20.6621L14.2163 24.541Z" fill="#F5F5F5"/>
<path d="M15.2313 24.541H15.7302L15.4837 20.6621L15.2313 24.541Z" fill="#F5F5F5"/>
<path d="M13.2014 24.541H13.7061L13.4537 20.6621L13.2014 24.541Z" fill="#F5F5F5"/>
<path d="M38.4801 28.9574L38.4915 28.2868L37.8378 28.2463L37.8435 28.9227L38.4801 28.9574Z" fill="#F5F5F5"/>
<path d="M28.1289 35.9636C27.9454 35.9636 27.802 36.0272 27.6873 36.1486C27.5726 36.2758 27.521 36.4434 27.521 36.6573C27.521 36.8712 27.5783 37.0331 27.6873 37.1602C27.802 37.2874 27.9454 37.351 28.1289 37.351C28.3124 37.351 28.4558 37.2874 28.5704 37.166C28.6851 37.0389 28.7368 36.8712 28.7368 36.6573C28.7368 36.4434 28.6794 36.2758 28.5704 36.1486C28.4558 36.0214 28.3124 35.9636 28.1289 35.9636Z" fill="#F5F5F5"/>
<path d="M40.0858 29.0384L40.0972 28.3852L39.4435 28.3447L39.455 29.0037L40.0858 29.0384Z" fill="#F5F5F5"/>
<path d="M33.7088 35.9636C33.5367 35.9636 33.3991 36.0214 33.2901 36.137C33.1869 36.2527 33.1296 36.4087 33.1296 36.6111V38.5939C33.1296 38.7962 33.1812 38.9523 33.2901 39.0621C33.3991 39.1777 33.5367 39.2356 33.7088 39.2356C33.8808 39.2356 34.0185 39.1777 34.1217 39.0621C34.2249 38.9465 34.2765 38.7904 34.2765 38.5939V36.6111C34.2765 36.4087 34.2249 36.2527 34.1217 36.137C34.0185 36.0214 33.8808 35.9636 33.7088 35.9636Z" fill="#F5F5F5"/>
<path d="M40.8885 29.0789L40.9 28.4372L40.2462 28.3967L40.2577 29.05L40.8885 29.0789Z" fill="#F5F5F5"/>
<path d="M41.6972 29.1192L41.703 28.4833L41.0492 28.4429L41.0607 29.0903L41.6972 29.1192Z" fill="#F5F5F5"/>
<path d="M12.1863 24.541H12.6909L12.4386 20.6621L12.1863 24.541Z" fill="#F5F5F5"/>
<path d="M20.3009 24.541H20.8056L20.5532 20.6621L20.3009 24.541Z" fill="#F5F5F5"/>
<path d="M21.316 24.541H21.8206L21.5683 20.6621L21.316 24.541Z" fill="#F5F5F5"/>
<path d="M22.3311 24.541H22.83L22.5834 20.6621L22.3311 24.541Z" fill="#F5F5F5"/>
<path d="M23.4608 22.72L23.3404 24.5409H23.845L23.7992 23.8414C23.6845 23.4715 23.5698 23.0957 23.4608 22.72Z" fill="#F5F5F5"/>
<path d="M19.2858 24.541H19.7904L19.5381 20.6621L19.2858 24.541Z" fill="#F5F5F5"/>
<path d="M17.2616 24.541H17.7605L17.5082 20.6621L17.2616 24.541Z" fill="#F5F5F5"/>
<path d="M16.2465 24.541H16.7454L16.4931 20.6621L16.2465 24.541Z" fill="#F5F5F5"/>
<path d="M18.2709 24.541H18.7755L18.5232 20.6621L18.2709 24.541Z" fill="#F5F5F5"/>
<path d="M22.3826 0.776072L2.86736 12.1353C1.09533 13.1643 0 15.072 0 17.1415V39.8542C0 41.918 1.09533 43.8256 2.86736 44.8604L22.3826 56.2197C24.1547 57.2544 26.3453 57.2544 28.1174 56.2197L47.6326 44.8604C49.4047 43.8256 50.5 41.918 50.5 39.8542V17.1415C50.5 15.0778 49.4047 13.1701 47.6326 12.1353L28.1174 0.776072C26.3453 -0.258691 24.1547 -0.258691 22.3826 0.776072ZM12.5361 37.2934H6.48024V36.8771H12.5304V37.2934H12.5361ZM17.6458 39.9872H16.7855V36.1661L15.8221 37.0101V36.0736L16.7855 35.2296H17.6458V39.9872ZM21.0063 38.6229H21.8665C21.8665 38.8253 21.9353 38.9813 22.0558 39.0854C22.1762 39.1895 22.331 39.2415 22.5088 39.2415C22.6866 39.2415 22.8529 39.1837 22.9676 39.0681C23.0823 38.9524 23.1454 38.7906 23.1454 38.5825C23.1454 38.3744 23.088 38.2241 22.9676 38.1027C22.8529 37.987 22.6866 37.9235 22.4801 37.9235H22.354V37.1662H22.4801C22.6808 37.1662 22.8299 37.1142 22.9274 37.0043C23.0249 36.8945 23.0765 36.75 23.0765 36.5708C23.0765 36.38 23.0192 36.2297 22.9102 36.1256C22.8013 36.0158 22.6636 35.9638 22.4973 35.9638C22.331 35.9638 22.1991 36.0158 22.0902 36.1199C21.9812 36.2239 21.9239 36.3626 21.9124 36.5418H21.0522C21.0636 36.1256 21.2013 35.7961 21.4765 35.5533C21.7518 35.3105 22.0902 35.1834 22.4973 35.1834C22.9045 35.1834 23.26 35.3105 23.5296 35.5649C23.7991 35.8192 23.9367 36.1488 23.9367 36.5476C23.9367 37.0043 23.7532 37.328 23.3919 37.5246C23.7991 37.7443 23.9998 38.1027 23.9998 38.6056C23.9998 39.0623 23.8565 39.4091 23.5697 39.6519C23.283 39.8947 22.9274 40.0219 22.4973 40.0219C22.0672 40.0219 21.7231 39.9063 21.4307 39.6693C21.1439 39.438 20.9948 39.0854 20.9891 38.6172L21.0063 38.6229ZM28.3525 46.2998L27.3374 45.2766L26.1848 46.4386L28.06 48.3289L27.3776 49.0168L25.5023 47.1265L23.6385 49.0052L22.9561 48.3173L24.8199 46.4386L23.6959 45.3055L22.916 46.0917L21.8837 45.0512L24.126 42.7909L25.1582 43.8314L24.3783 44.6176L25.5023 45.7507L26.655 44.5887L25.8694 43.7967L26.8615 42.7967L28.7597 44.7101L28.3582 46.2998H28.3525ZM29.207 37.9292L28.2034 39.9872H27.2686L28.2493 38.0217C28.1518 38.0622 28.0371 38.0795 27.8994 38.0795C27.5611 38.0795 27.2686 37.9524 27.022 37.6922C26.7754 37.4321 26.6493 37.091 26.6493 36.669C26.6493 36.2123 26.7869 35.8482 27.0622 35.5822C27.3374 35.3163 27.693 35.1834 28.1174 35.1834C28.5417 35.1834 28.8973 35.3163 29.1726 35.5765C29.4478 35.8366 29.5855 36.195 29.5855 36.6575C29.5855 36.9696 29.4536 37.3916 29.1955 37.9292H29.207ZM35.1424 38.6114C35.1424 39.0449 35.0048 39.3918 34.7295 39.6461C34.4542 39.9005 34.1159 40.0277 33.7145 40.0277C33.313 40.0277 32.9689 39.9005 32.6937 39.6461C32.4127 39.3918 32.275 39.0449 32.275 38.6114V36.6054C32.275 36.1719 32.4127 35.825 32.6937 35.5707C32.9747 35.3163 33.313 35.1891 33.7145 35.1891C34.1159 35.1891 34.4542 35.3163 34.7295 35.5707C35.0048 35.825 35.1424 36.1719 35.1424 36.6054V38.6114ZM36.0313 31.9808L36.1574 22.9396L36.2836 31.9808H36.0313ZM36.8341 31.9808L36.9603 22.9396L37.0865 31.9808H36.8341ZM37.3617 28.2233V24.5294L37.7402 24.5756L37.7632 22.9396L37.7861 24.5814L38.5431 24.6739L38.566 23.0321L38.589 24.6797L39.2255 24.7548L39.346 24.7664L39.3689 23.1362L39.3918 24.7721L40.1431 24.8589L40.166 23.1362L40.189 24.8646L40.9402 24.9514L40.9689 23.1304L40.9976 24.9571L41.7488 25.0438L41.7717 23.3038L41.7947 25.0496V25.0901L41.8922 31.9808H37.3503V28.8996L37.6657 28.917L37.6772 28.2406L37.3503 28.2233H37.3617ZM39.3689 22.8182V20.899L40.533 21.1245V22.9396L39.3689 22.8182ZM44.014 37.2934H37.9639V36.8771H44.014V37.2934ZM42.4542 31.9808L42.5803 23.5408L42.7065 31.9808H42.4542ZM43.257 31.9808L43.3832 23.5408L43.5094 31.9808H43.257ZM43.8592 25.0554V23.4946L39.971 18.8584L35.3546 23.6796L35.4808 31.9866H35.2284L35.3546 23.6854L34.5919 24.4831L34.8843 31.9866H34.2306L34.5173 24.564L34.3166 24.7721H34.2937H34.3109L33.8005 25.0438L34.07 31.9866H33.4162L33.68 25.1074L32.9976 25.4658L33.2499 31.9866H32.5962L32.8428 25.5468L32.1948 25.8878L32.4299 31.9866H31.7761L32.0112 25.9861L31.3976 26.3098L31.6155 31.9866H30.9618L31.1797 26.4255L30.6005 26.7318L30.8012 31.9866H30.1475L30.3482 26.8648L29.8034 27.1538L29.9926 31.9866H29.3389L29.5224 27.3041L29.0062 27.5758L29.1783 31.9924H28.5245L28.6908 27.7435L28.2091 27.9978L28.364 31.9924H27.7102L27.8593 28.1828L27.412 28.4198L27.5496 31.9924H26.8959L27.0278 28.6222L26.6149 28.8418L26.7353 31.9924H26.0815L26.1962 29.0615L25.8177 29.2638L25.921 31.9924H25.2672L25.3647 29.5008L25.0149 29.6858L25.1066 31.9924H24.4529L24.5332 29.9402L24.3554 30.0327L23.7475 29.0846L23.7934 31.9924H23.541L23.5869 28.836L22.9274 27.8071L22.9905 31.9924H22.7382L22.8013 27.6105L22.1074 26.5295L22.1877 31.9924H21.9353L22.0156 26.385L21.2873 25.252L21.3848 31.9924H21.1325L21.23 25.1595L21.1669 25.0612H20.4844L20.5819 31.9924H20.3296L20.4271 25.0612H19.6758L19.7733 31.9924H19.521L19.6185 25.0612H18.873L18.9705 31.9924H18.7181L18.8156 25.0612H18.0701L18.1676 31.9924H17.9153L18.0128 25.0612H17.2673L17.3648 31.9924H17.1124L17.2099 25.0612H16.4644L16.5619 31.9924H16.3096L16.4071 25.0612H15.6615L15.759 31.9924H15.5067L15.6042 25.0612H14.8587L14.9562 31.9924H14.7038L14.8013 25.0612H14.0558L14.1533 31.9924H13.901L13.9985 25.0612H13.2472L13.3504 31.9924H13.0981L13.2013 25.0612H12.3641V27.7608V27.9053H12.3698V31.9924H11.1942L10.8616 31.686L10.873 31.9924H10.2193L10.2537 31.1252L10.0186 30.9056L10.0587 31.9924H9.40495L9.46803 30.4026L9.16983 30.1309L9.24438 31.9924H8.59062L8.68238 29.6743L8.32682 29.3505L8.43005 31.9924H7.77629L7.89672 28.9517L7.48382 28.5701L7.61572 31.9924H6.96196L7.10533 28.2233L6.81859 27.9574H6.64081L6.79565 31.9924H6.14189L6.29673 27.9574H5.82075L5.97558 31.9924H5.32183L5.47666 27.9574H5.00068L5.15552 31.9924H4.50176L4.6566 27.9574H4.04872L5.97558 23.9628H11.5039L11.544 19.8585L22.1016 20.0724L23.1798 11.5457C23.1855 11.4763 23.2314 11.4185 23.2945 11.3896L25.164 10.5109C25.2271 10.482 25.2959 10.4878 25.3532 10.5225C25.4106 10.5572 25.445 10.6208 25.445 10.6901V21.9511C25.445 21.9511 25.445 21.9627 25.445 21.9685L28.3697 19.9047L29.0349 19.7602L41.0549 17.1184L41.0664 17.1704L41.0893 17.1473L47.1968 25.0959L43.8649 25.0728L43.8592 25.0554Z" fill="#F5F5F5"/>
</svg>
